<svg id="Ebene_1" data-name="Ebene 1" xmlns="http://www.w3.org/2000/svg" viewBox="0 0 279.461 72.437" width="308.641" height="80">
	<defs>
		<style>.cls-2{fill:#033778}.cls-3{fill:#fff}</style>
	</defs>
	<path d="M84.238 64.186c7.189 -1.138 7.5 -3.028 7.5 -10.6v-34.071c0 -7.947 0.068 -10.597 -5.609 -11.734 0 0 -1.205 -0.209 -1.205 -1.24V5.536h38.858a1.248 1.248 0 0 1 1.257 1.205c0.149 1.248 1.409 11.925 1.516 12.798s-1.895 0.759 -1.895 0.759c-3.025 -7.947 -7.189 -10.609 -13.245 -10.989l-11.729 -0.759v24.979l9.08 -0.379c7.193 -0.285 8.706 -0.307 9.843 -6.363 0 0 0.12 -1.205 1.005 -1.205h0.885v19.676h-0.885c-0.907 0 -1.005 -1.205 -1.005 -1.205 -1.138 -6.814 -2.649 -6.457 -9.843 -6.742l-9.08 -0.375v16.648c0 7.002 1.89 9.084 9.838 9.084 9.463 0 14.003 -3.028 18.545 -12.487 0 0 2.104 -0.115 1.89 0.754s-3.407 13.109 -3.782 14.31 -2.394 1.209 -2.394 1.209H83.05v-1.138c0 -1.129 1.188 -1.133 1.188 -1.133ZM278.256 7.794s1.205 -0.209 1.205 -1.24V5.536H229.453v1.031c0 1.027 1.205 1.243 1.205 1.243 7.189 1.133 8.161 2.556 8.258 10.221l0.375 35.293S205.129 6.729 204.698 6.129a1.772 1.772 0 0 0 -1.32 -0.605h-13.663v1.031c0 0.933 1.205 1.24 1.205 1.24 7.755 2.747 7.875 4.165 7.875 14.855v0.285l-1.133 31.031c-0.17 7.891 -2.394 9.711 -5.587 9.711 0 0 -5.421 -1.389 -8.782 -3.237 -8.945 -4.906 -19.412 -22.437 -19.412 -22.437 6.814 -4.54 11.734 -9.011 11.734 -17.717 0 -9.08 -7.568 -14.757 -17.41 -14.757h-24.221v1.027c0 0.924 1.205 1.24 1.205 1.24 6.057 2.27 5.985 4.545 5.985 12.113v33.616c0 7.568 -0.307 9.459 -7.875 10.597 0 0 -1.205 0.132 -1.205 1.201v1.07h26.491v-1.07c0 -1.073 -1.205 -1.201 -1.205 -1.201 -7.947 -1.138 -8.258 -2.653 -8.258 -10.597V40.273a22.819 22.819 0 0 0 8.138 0l13.125 18.548c5.584 8.815 11.346 7.62 26.069 7.62h17.105v-1.138c0 -1.027 -1.205 -1.133 -1.205 -1.133 -7.189 -1.516 -8.919 -2.274 -9.011 -10.221l-0.379 -36.708s36.077 48.391 36.525 48.978a1.703 1.703 0 0 0 1.226 0.6h1.277a1.116 1.116 0 0 0 1.111 -1.209c0 -0.579 1.124 -47.987 1.124 -47.987 0.187 -7.568 2.862 -9.838 9.302 -9.838s8.914 3.028 8.914 10.221v35.576c0 7.572 -0.307 9.463 -7.875 10.6 0 0 -1.205 0.12 -1.205 1.133V66.44h26.112v-1.138c0 -1.035 -1.205 -1.133 -1.205 -1.133 -7.568 -1.138 -7.88 -3.122 -7.88 -10.6V18.012c-0.013 -7.364 0.392 -8.986 7.866 -10.218ZM157.05 36.687c-2.274 0.073 -5.656 -0.197 -7.93 -1.333V9.31c11.355 0 18.927 5.298 18.927 14.761 0 5.315 -3.16 12.36 -10.997 12.616Z" style="fill:#515455"/>
	<path class="cls-2" d="M50.865 28.962A14.374 14.374 0 0 0 53.237 23.327c1.061 -5.375 -2.632 -9.174 -7.577 -7.81A11.295 11.295 0 0 0 40.886 18.19C35.349 23.615 33.739 30.03 33.969 38.927c6.563 -1.96 12.658 -4.298 16.895 -9.966"/>
	<path class="cls-3" d="M40.886 18.19a11.295 11.295 0 0 1 4.809 -2.675c4.945 -1.363 8.637 2.437 7.577 7.81A14.374 14.374 0 0 1 50.865 28.962c-4.259 5.677 -10.333 8.015 -16.895 9.974C33.739 30.03 35.349 23.615 40.886 18.19m5.728 34.332c-7.978 0.077 -11.883 -3.624 -12.428 -10.077 0 0 10.431 -3.612 13.458 -5.009 0.273 -0.128 0.549 -0.247 0.822 -0.384 5.302 -2.556 9.843 -6.299 12.495 -12.125 3.19 -6.998 0.681 -14.94 -5.558 -17.462 -3.735 -1.504 -7.458 -1.056 -11.098 0.149 -8.683 2.879 -15.46 8.518 -20.418 16.58 -4.498 7.292 -6.81 15.217 -4.948 24.169 1.439 6.938 6.218 11.831 12.803 12.705 6.861 0.911 15.455 -0.294 22.573 -3.476a46.214 46.214 0 0 0 6.277 -9.409 49.285 49.285 0 0 0 2.049 -4.685c-1.917 4.799 -10.614 8.76 -16.048 9.042m-34.702 -9.255a2.934 2.934 0 1 0 3.56 2.129 2.938 2.938 0 0 0 -3.56 -2.129"/>
	<path class="cls-3" d="M13.318 48.978a2.934 2.934 0 0 0 2.159 -3.407l-0.026 -0.145a2.934 2.934 0 0 0 -5.779 0.851 3.156 3.156 0 0 0 0.085 0.588 2.938 2.938 0 0 0 3.56 2.113Z"/>
	<path class="cls-2" d="M66.819 5.558c0 -0.264 -0.12 -0.367 -0.358 -0.426 -0.698 -0.214 -1.393 -0.456 -2.095 -0.664a103.783 103.783 0 0 0 -17.637 -3.701C42.913 0.298 37.266 0.043 33.425 0c-3.833 0.043 -9.489 0.298 -13.301 0.759a103.745 103.745 0 0 0 -17.64 3.701C1.78 4.685 1.09 4.911 0.387 5.111c-0.235 0.068 -0.353 0.17 -0.353 0.426C0.026 9.795 -0.026 14.021 0 18.253 0 20.443 0.179 22.632 0.336 24.817a74.813 74.813 0 0 0 1.657 11.286 52.994 52.994 0 0 0 4.259 12.083 47.146 47.146 0 0 0 10.826 14.054c4.612 4.131 10.516 7.39 16.061 10.141a0.614 0.614 0 0 0 0.264 0.06h0.03a0.597 0.597 0 0 0 0.26 -0.06c5.536 -2.751 11.448 -6.009 16.061 -10.141a49.25 49.25 0 0 0 4.553 -4.642 42.675 42.675 0 0 1 -7.398 2.492 42.892 42.892 0 0 1 -14.783 1.027l-0.392 -0.043c-0.235 -0.03 -0.46 -0.077 -0.69 -0.12 -6.227 -1.116 -10.724 -5.894 -12.117 -12.585a29.656 29.656 0 0 1 0.468 -14.2A38.867 38.867 0 0 1 23.851 24.208a38.867 38.867 0 0 1 12.185 -12.658 35.775 35.775 0 0 1 4.259 -2.325 37.572 37.572 0 0 1 3.999 -1.597q0.614 -0.197 1.226 -0.37c3.033 -0.851 6.116 -1.081 9.216 -0.022 0.218 0.073 0.426 0.154 0.655 0.243 6.239 2.509 8.748 10.451 5.558 17.462C58.289 30.754 53.748 34.498 48.446 37.053c-0.23 0.115 -0.485 0.23 -0.75 0.349l-0.073 0.033c-3.028 1.397 -13.453 5.009 -13.458 5.009a12.197 12.197 0 0 0 1.52 5.213c1.866 3.186 5.421 4.92 10.902 4.864 0.128 0 0.255 0 0.384 -0.026h0.179c5.455 -0.511 13.629 -4.365 15.489 -9.003a56.295 56.295 0 0 0 2.197 -7.376 74.813 74.813 0 0 0 1.657 -11.286c0.157 -2.185 0.315 -4.374 0.336 -6.563 0.033 -4.245 -0.009 -8.471 -0.013 -12.708ZM13.318 48.978a2.934 2.934 0 1 1 2.129 -3.56 2.938 2.938 0 0 1 -2.129 3.56Z"/>
</svg>