<svg id="Ebene_1" data-name="Ebene 1" xmlns="http://www.w3.org/2000/svg" viewBox="0 0 656.17 170.08"><defs><style>.cls-1{fill:#515455;}.cls-2{fill:#033778;}.cls-3{fill:#fff;}</style></defs><title>logo colors</title><path class="cls-1" d="M197.79,150.71c16.88-2.67,17.61-7.11,17.61-24.89v-80c0-18.66.16-24.88-13.17-27.55,0,0-2.83-.49-2.83-2.91V13h91.24a2.93,2.93,0,0,1,2.95,2.83c.35,2.93,3.31,28,3.56,30.05s-4.45,1.78-4.45,1.78C285.6,29,275.82,22.75,261.6,21.86l-27.54-1.78V78.73l21.32-.89c16.89-.67,20.44-.72,23.11-14.94,0,0,.28-2.83,2.36-2.83h2.08v46.2h-2.08c-2.13,0-2.36-2.83-2.36-2.83-2.67-16-6.22-15.16-23.11-15.83l-21.32-.88v39.09c0,16.44,4.44,21.33,23.1,21.33,22.22,0,32.88-7.11,43.54-29.32,0,0,4.94-.27,4.44,1.77s-8,30.78-8.88,33.6-5.62,2.84-5.62,2.84H195v-2.67C195,150.72,197.79,150.71,197.79,150.71Z"/><path class="cls-1" d="M653.34,18.3s2.83-.49,2.83-2.91V13H538.75v2.42c0,2.41,2.83,2.92,2.83,2.92,16.88,2.66,19.16,6,19.39,24l.88,82.87S481.64,15.8,480.63,14.39a4.16,4.16,0,0,0-3.1-1.42H445.45v2.42c0,2.19,2.83,2.91,2.83,2.91,18.21,6.45,18.49,9.78,18.49,34.88v.67l-2.66,72.86c-.4,18.53-5.62,22.8-13.12,22.8,0,0-12.73-3.26-20.62-7.6-21-11.52-45.58-52.68-45.58-52.68,16-10.66,27.55-21.16,27.55-41.6,0-21.32-17.77-34.65-40.88-34.65H314.59v2.41c0,2.17,2.83,2.91,2.83,2.91,14.22,5.33,14.05,10.67,14.05,28.44v78.93c0,17.77-.72,22.21-18.49,24.88,0,0-2.83.31-2.83,2.82v2.51h62.2v-2.51c0-2.52-2.83-2.82-2.83-2.82-18.66-2.67-19.39-6.23-19.39-24.88V94.56a53.58,53.58,0,0,0,19.11,0l30.82,43.55C413.17,158.81,426.7,156,461.27,156h40.16v-2.67c0-2.41-2.83-2.66-2.83-2.66-16.88-3.56-20.94-5.34-21.16-24l-.89-86.19s84.71,113.62,85.76,115a4,4,0,0,0,2.88,1.41l3,0a2.62,2.62,0,0,0,2.61-2.84c0-1.36,2.64-112.67,2.64-112.67.44-17.77,6.72-23.1,21.84-23.1s20.93,7.11,20.93,24v83.53c0,17.78-.72,22.22-18.49,24.89,0,0-2.83.28-2.83,2.66V156h61.31v-2.67c0-2.43-2.83-2.66-2.83-2.66-17.77-2.67-18.5-7.33-18.5-24.89V42.29C634.84,25,635.79,21.19,653.34,18.3ZM368.75,86.14c-5.34.17-13.28-.46-18.62-3.13V21.86c26.66,0,44.44,12.44,44.44,34.66C394.57,69,387.15,85.54,368.75,86.14Z"/><path class="cls-2" d="M119.43,68A33.75,33.75,0,0,0,125,54.77c2.49-12.62-6.18-21.54-17.79-18.34A26.52,26.52,0,0,0,96,42.71C83,55.45,79.22,70.51,79.76,91.4,95.17,86.8,109.48,81.31,119.43,68"/><path class="cls-3" d="M96,42.71a26.52,26.52,0,0,1,11.29-6.28c11.61-3.2,20.28,5.72,17.79,18.34A33.75,33.75,0,0,1,119.43,68c-10,13.33-24.26,18.82-39.67,23.42C79.22,70.51,83,55.45,96,42.71m13.45,80.61c-18.73.18-27.9-8.51-29.18-23.66,0,0,24.49-8.48,31.6-11.76.64-.3,1.29-.58,1.93-.9,12.45-6,23.11-14.79,29.34-28.47,7.49-16.43,1.6-35.08-13.05-41-8.77-3.53-17.51-2.48-26.06.35-20.39,6.76-36.3,20-47.94,38.93C45.53,73.93,40.1,92.54,44.47,113.56c3.38,16.29,14.6,27.78,30.06,29.83,16.11,2.14,36.29-.69,53-8.16a108.51,108.51,0,0,0,14.74-22.09,115.72,115.72,0,0,0,4.81-11c-4.5,11.27-24.92,20.57-37.68,21.23"/><path class="cls-3" d="M27.92,101.64a6.89,6.89,0,1,0,8.36,5,6.9,6.9,0,0,0-8.36-5"/><path class="cls-3" d="M31.27,115a6.89,6.89,0,0,0,5.07-8l-.06-.34a6.89,6.89,0,0,0-13.57,2,7.41,7.41,0,0,0,.2,1.38A6.9,6.9,0,0,0,31.27,115Z"/><path class="cls-2" d="M156.89,13.05c0-.62-.28-.86-.84-1-1.64-.5-3.27-1.07-4.92-1.56a243.68,243.68,0,0,0-41.41-8.69C100.76.7,87.5.1,78.48,0h0c-9,.1-22.28.7-31.23,1.78A243.59,243.59,0,0,0,5.83,10.47C4.18,11,2.56,11.53.91,12c-.55.16-.83.4-.83,1C.06,23-.06,32.92,0,42.86c0,5.14.42,10.28.79,15.41a175.66,175.66,0,0,0,3.89,26.5,124.43,124.43,0,0,0,10,28.37,110.7,110.7,0,0,0,25.42,33c10.83,9.7,24.69,17.35,37.71,23.81a1.44,1.44,0,0,0,.62.14h.07a1.4,1.4,0,0,0,.61-.14c13-6.46,26.88-14.11,37.71-23.81a115.64,115.64,0,0,0,10.69-10.9,100.2,100.2,0,0,1-17.37,5.85,100.71,100.71,0,0,1-34.71,2.41l-.92-.1c-.55-.07-1.08-.18-1.62-.28-14.62-2.62-25.18-13.84-28.45-29.55a69.63,69.63,0,0,1,1.1-33.34A91.26,91.26,0,0,1,56,56.84,91.26,91.26,0,0,1,84.61,27.12a84,84,0,0,1,10-5.46A88.22,88.22,0,0,1,104,17.91q1.44-.46,2.88-.87c7.12-2,14.36-2.54,21.64-.05.51.17,1,.36,1.54.57,14.65,5.89,20.54,24.54,13.05,41C136.86,72.21,126.2,81,113.75,87c-.54.27-1.14.54-1.76.82l-.17.08c-7.11,3.28-31.59,11.76-31.6,11.76a28.64,28.64,0,0,0,3.57,12.24c4.38,7.48,12.73,11.55,25.6,11.42.3,0,.6,0,.9-.06l.32,0h.1c12.81-1.2,32-10.25,36.37-21.14v0a132.18,132.18,0,0,0,5.16-17.32,175.66,175.66,0,0,0,3.89-26.5c.37-5.13.74-10.27.79-15.41C157,32.92,156.9,23,156.89,13.05ZM31.27,115a6.89,6.89,0,1,1,5-8.36A6.9,6.9,0,0,1,31.27,115Z"/></svg>